<?xml version="1.0" standalone="no"?>
<!DOCTYPE svg PUBLIC "-//W3C//DTD SVG 20010904//EN"
 "http://www.w3.org/TR/2001/REC-SVG-20010904/DTD/svg10.dtd">
<svg version="1.0" xmlns="http://www.w3.org/2000/svg"
 width="300.000000pt" height="300.000000pt" viewBox="0 0 300.000000 300.000000"
 preserveAspectRatio="xMidYMid meet">

<g transform="translate(0.000000,300.000000) scale(0.100000,-0.100000)"
fill="#000000" stroke="none">
<path d="M2542 2947 c-19 -20 -24 -38 -26 -97 -5 -104 23 -237 58 -272 14 -15
26 -36 26 -47 0 -10 5 -21 12 -23 25 -9 -5 -28 -43 -28 -21 0 -47 -4 -57 -9
-9 -5 -30 -15 -47 -21 -16 -7 -45 -29 -63 -50 -27 -32 -36 -56 -56 -151 -13
-63 -29 -145 -35 -184 -23 -154 -64 -755 -51 -768 4 -5 26 -11 49 -14 l41 -6
0 44 c0 75 78 525 79 460 1 -19 6 -74 12 -123 l12 -88 73 0 73 0 1 -194 0
-194 -111 3 -112 3 6 -184 6 -184 -135 0 -134 0 0 258 c1 294 -17 418 -66 473
-10 11 -11 24 -5 45 4 16 14 70 21 121 11 75 16 89 25 76 7 -9 10 -25 7 -35
-6 -24 8 -129 16 -124 4 2 7 -26 7 -62 1 -90 12 -232 19 -239 3 -4 6 -15 6
-25 0 -16 6 -19 38 -16 l37 3 -1 255 c-2 257 -7 364 -24 498 -6 40 -10 93 -10
118 0 24 -5 44 -11 44 -5 0 -7 5 -4 10 4 6 -1 44 -10 85 -14 64 -21 79 -53
105 -20 17 -54 35 -74 41 -38 10 -38 10 -38 64 l0 53 -30 -11 c-16 -6 -31 -9
-34 -6 -3 2 -6 91 -8 197 -3 190 -3 192 -25 192 -30 0 -61 -36 -70 -79 -8 -46
10 -194 32 -247 9 -23 27 -47 41 -54 20 -11 24 -21 24 -57 l0 -43 -48 0 c-68
0 -145 -40 -167 -86 -44 -94 -81 -254 -110 -479 -8 -66 -17 -133 -20 -150 -9
-56 -28 -340 -26 -385 2 -50 12 -60 57 -60 31 0 32 1 38 58 19 159 59 380 81
441 12 35 12 35 24 -45 7 -43 17 -103 23 -132 13 -60 23 -65 102 -59 l48 5 -7
-378 c-9 -449 -8 -423 -20 -432 -6 -5 -5 -12 3 -20 14 -14 17 -52 3 -43 -17
10 -23 -56 -19 -197 2 -75 1 -135 -2 -133 -3 2 -4 -13 -3 -33 3 -57 2 -82 -3
-159 -5 -66 -8 -72 -32 -82 -15 -7 -40 -27 -55 -46 -16 -20 -33 -32 -39 -29
-7 4 -8 2 -4 -4 5 -8 49 -12 133 -12 115 0 125 1 118 18 -4 9 -8 22 -9 27 -1
6 -7 20 -14 32 -7 12 -12 29 -12 39 0 19 10 14 14 -8 1 -7 8 -24 16 -38 7 -14
13 -27 12 -30 -1 -3 1 -13 4 -22 4 -14 16 -18 55 -18 27 0 49 5 49 10 0 7 6 7
19 0 11 -5 55 -10 98 -10 l78 0 22 48 c12 26 32 58 45 72 13 14 28 37 35 52
11 25 17 27 87 30 l76 3 0 -36 c0 -30 -6 -41 -36 -64 -22 -17 -33 -33 -30 -42
3 -8 1 -11 -4 -8 -6 3 -10 -2 -10 -12 0 -12 -3 -14 -8 -6 -6 9 -16 6 -37 -12
l-30 -24 287 -1 287 0 1 355 0 355 -65 1 c-36 1 -71 2 -77 3 -7 0 -14 16 -16
34 -3 32 -3 32 40 30 l43 -1 -37 -4 c-25 -3 -38 -9 -38 -19 0 -11 16 -14 75
-14 l75 0 0 40 c0 25 -5 40 -12 41 -7 1 -42 2 -78 3 l-65 1 3 220 c4 231 0
263 -50 448 -20 72 -20 86 -9 180 6 56 14 123 17 150 4 31 2 47 -5 47 -19 0
-12 16 8 17 15 1 21 -9 30 -55 21 -113 54 -403 59 -525 2 -33 6 -39 42 -54 22
-10 40 -22 40 -27 0 -5 -3 -6 -7 -3 -3 4 -13 1 -21 -6 -13 -10 -15 -9 -9 5 4
12 2 15 -9 11 -16 -6 -19 -40 -3 -45 13 -4 28 -71 29 -126 0 -61 14 -44 29 35
12 62 10 378 -3 463 -2 14 -4 53 -5 88 -1 39 -5 61 -11 57 -5 -3 -10 1 -10 10
0 9 5 13 10 10 10 -6 14 8 5 17 -3 3 -8 63 -11 134 -7 151 -52 389 -90 475
-21 47 -34 61 -72 82 -43 23 -101 41 -118 37 -13 -3 -21 21 -20 65 1 28 -2 41
-8 35 -6 -6 -18 -10 -28 -10 -15 0 -18 9 -19 63 -1 34 -4 125 -8 202 -7 153
-15 169 -59 122z m101 -408 c-6 -6 -9 -19 -6 -28 4 -13 3 -13 -5 -2 -12 16 -5
41 11 41 8 0 8 -3 0 -11z m-526 -371 c-3 -8 -6 -5 -6 6 -1 11 2 17 5 13 3 -3
4 -12 1 -19z m40 7 c0 -8 -4 -12 -9 -9 -4 3 -8 9 -8 15 0 5 4 9 8 9 5 0 9 -7
9 -15z m-134 -335 c-3 -11 -7 -20 -9 -20 -2 0 -4 9 -4 20 0 11 4 20 9 20 5 0
7 -9 4 -20z m734 -32 c4 -28 -6 -18 -12 12 -2 12 -1 20 2 16 4 -4 8 -16 10
-28z m30 -15 c-3 -10 -5 -2 -5 17 0 19 2 27 5 18 2 -10 2 -26 0 -35z m-587 13
c0 -3 -4 -8 -10 -11 -5 -3 -10 -1 -10 4 0 6 5 11 10 11 6 0 10 -2 10 -4z m559
-83 c0 -16 -3 -22 -6 -15 -2 6 -8 10 -13 7 -4 -3 -6 4 -3 15 8 29 23 24 22 -7z
m156 -62 c3 -5 1 -12 -5 -16 -5 -3 -10 1 -10 9 0 18 6 21 15 7z m-748 -133
c-3 -7 -5 -2 -5 12 0 14 2 19 5 13 2 -7 2 -19 0 -25z m-580 -20 c-3 -8 -6 -5
-6 6 -1 11 2 17 5 13 3 -3 4 -12 1 -19z m1330 -80 c-3 -8 -6 -5 -6 6 -1 11 2
17 5 13 3 -3 4 -12 1 -19z m-704 -31 c7 4 5 -2 -3 -13 -8 -10 -16 -21 -17 -23
-2 -2 -2 11 -2 30 1 19 3 26 6 16 3 -10 9 -14 16 -10z m422 -499 c7 -76 6 -78
-16 -78 -22 0 -22 1 -16 98 4 53 7 115 8 137 1 33 3 30 9 -20 4 -33 11 -95 15
-137z m-374 -136 c-74 -1 -138 1 -142 5 -5 4 56 6 134 3 l142 -5 -134 -3z
m389 -29 c0 -24 -4 -28 -30 -28 -22 0 -30 5 -30 18 0 12 8 17 25 17 14 0 25 5
25 10 0 6 2 10 5 10 3 0 5 -12 5 -27z m-250 -10 l0 -28 -108 1 c-175 1 -182 2
-182 22 0 15 12 17 140 14 93 -2 140 0 140 7 0 6 2 11 5 11 3 0 5 -12 5 -27z
m257 -205 c-2 -18 -4 -6 -4 27 0 33 2 48 4 33 2 -15 2 -42 0 -60z m13 -123 c0
-14 -4 -25 -9 -25 -4 0 -6 11 -3 25 2 14 6 25 8 25 2 0 4 -11 4 -25z m-83 -17
c-3 -8 -6 -5 -6 6 -1 11 2 17 5 13 3 -3 4 -12 1 -19z m-532 -167 c3 -5 2 -12
-3 -15 -5 -3 -9 1 -9 9 0 17 3 19 12 6z m25 -31 c0 -5 -5 -10 -11 -10 -5 0 -7
5 -4 10 3 6 8 10 11 10 2 0 4 -4 4 -10z"/>
<path d="M424 2788 c5 -207 1 -244 -25 -251 -12 -3 -17 -1 -12 5 4 8 -5 9 -27
5 -18 -4 -36 -7 -41 -7 -5 0 -9 -17 -9 -38 0 -36 -2 -38 -43 -49 -54 -15 -92
-45 -117 -92 -31 -63 -92 -330 -110 -491 -6 -47 -17 -141 -25 -210 -8 -69 -15
-193 -15 -276 l0 -152 35 -4 c19 -2 39 -2 44 1 5 4 11 35 14 71 2 36 7 72 10
80 3 8 11 49 17 90 7 41 19 102 26 135 8 33 14 72 14 88 0 17 5 27 15 27 8 0
15 -3 15 -7 0 -5 5 -37 10 -73 8 -58 7 -74 -15 -140 -52 -161 -64 -256 -65
-522 l0 -168 -60 0 -60 0 0 -40 0 -40 65 0 c55 0 65 -3 65 -17 0 -16 -8 -18
-65 -15 l-65 4 0 -349 0 -349 315 -3 c224 -2 315 1 315 9 0 7 6 8 18 1 24 -13
595 -14 587 -1 -3 5 -2 10 4 10 5 0 13 -4 16 -10 4 -6 81 -10 200 -10 165 0
194 2 199 16 4 9 2 13 -5 8 -6 -3 -3 5 6 20 10 14 22 26 27 26 5 0 7 4 4 9 -3
5 0 11 8 14 23 9 73 90 70 112 -2 11 -6 52 -10 90 -3 39 -10 77 -14 85 -4 8
-13 65 -19 125 -23 210 -18 192 -54 199 -18 3 -100 8 -184 12 l-151 7 -5 -24
c-3 -18 -5 -15 -6 11 l-1 35 184 -3 185 -3 -1 40 0 41 -117 0 c-64 0 -134 3
-155 7 -27 4 -37 3 -33 -5 5 -7 -3 -7 -25 0 l-33 10 2 238 c2 154 -1 241 -7
245 -6 4 -10 3 -9 -2 5 -32 -22 -80 -40 -69 -4 3 -8 -4 -8 -15 -1 -11 2 -17 6
-15 4 3 8 -1 8 -9 0 -8 -4 -12 -8 -10 -4 3 -9 -1 -12 -9 -7 -17 -43 -11 -70
12 -9 8 -20 12 -24 8 -4 -4 -2 -11 6 -15 8 -6 2 -10 -19 -15 l-32 -6 6 -82
c20 -284 21 -267 -3 -261 -19 5 -21 13 -22 82 -1 42 0 81 1 86 2 6 4 33 6 60
1 28 5 78 9 113 5 45 3 62 -5 62 -7 0 -10 -8 -7 -20 3 -11 2 -18 -2 -16 -4 3
-5 -9 -3 -26 3 -16 0 -33 -6 -37 -15 -9 -22 -167 -8 -182 6 -7 7 -9 1 -6 -5 3
-10 -5 -10 -18 0 -13 4 -21 9 -18 5 4 6 -11 2 -33 -4 -21 -8 -43 -9 -49 -1 -5
-6 -14 -12 -18 -6 -5 -1 -7 12 -4 16 4 20 1 16 -11 -4 -9 -2 -13 4 -9 7 5 9 0
6 -12 -3 -13 -10 -18 -21 -13 -10 4 -12 7 -4 10 14 4 6 22 -9 22 -7 0 -8 -15
-4 -40 4 -22 3 -40 -2 -40 -5 0 -9 -9 -10 -20 -1 -11 2 -18 6 -15 10 5 7 -67
-2 -82 -4 -6 -7 -62 -8 -124 -1 -111 -12 -174 -30 -163 -5 3 -9 -3 -9 -13 0
-15 -2 -16 -10 -3 -14 21 -12 30 5 30 8 0 15 7 15 16 0 8 5 12 10 9 6 -4 10 5
10 20 0 15 -4 24 -10 20 -6 -3 -7 1 -4 9 3 9 1 16 -5 16 -6 0 -11 -10 -11 -22
0 -19 -2 -20 -10 -8 -14 21 -13 -5 0 -31 8 -15 7 -19 -5 -19 -9 0 -15 9 -15
24 0 14 -5 28 -10 31 -6 4 -3 16 10 32 21 27 27 87 10 113 -6 9 -10 10 -10 3
0 -6 -3 -19 -7 -29 -4 -12 -3 -15 6 -10 6 4 1 -12 -11 -36 -22 -42 -25 -87 -7
-99 6 -3 6 -37 2 -80 l-7 -74 -13 75 c-7 41 -15 98 -17 127 -3 29 -10 80 -16
115 -5 35 -10 86 -10 115 0 85 3 83 -129 83 -78 0 -111 -3 -101 -10 9 -6 10
-10 3 -10 -6 0 -15 5 -19 11 -3 6 -19 9 -34 7 -22 -3 -26 -1 -22 14 4 15 20
18 146 20 85 2 141 7 141 13 0 6 -28 11 -62 13 -60 3 -77 12 -51 28 6 4 14 2
16 -4 2 -7 23 -12 50 -12 25 0 42 3 39 7 -4 3 -2 12 4 20 9 11 1 13 -47 14
-33 0 -99 1 -149 2 l-90 2 -2 190 c-3 272 -18 406 -53 475 l-27 55 23 75 c12
41 23 70 23 65 1 -6 8 -64 15 -130 8 -66 18 -173 22 -237 l7 -118 54 0 54 0
-6 248 c-10 427 -29 689 -61 811 -23 91 -104 173 -184 186 -39 7 -40 8 -40 46
0 26 4 39 14 39 35 0 73 218 56 324 -9 59 -31 96 -57 96 -11 0 -12 -32 -9
-172z m-47 -845 c-3 -10 -5 -2 -5 17 0 19 2 27 5 18 2 -10 2 -26 0 -35z m-8
-270 c0 -25 -1 -25 -8 -8 -5 11 -7 23 -4 28 8 14 13 7 12 -20z m298 -345 c-3
-8 -6 -5 -6 6 -1 11 2 17 5 13 3 -3 4 -12 1 -19z m-442 -37 c3 -5 1 -12 -5
-16 -5 -3 -10 1 -10 9 0 18 6 21 15 7z m146 -385 c3 -52 0 -86 -6 -86 -5 -1
-19 -9 -29 -18 -11 -9 -16 -12 -13 -5 4 6 9 51 11 100 2 48 8 102 12 118 l7
30 8 -26 c4 -15 8 -66 10 -113z m176 -98 c-3 -8 -6 -5 -6 6 -1 11 2 17 5 13 3
-3 4 -12 1 -19z m73 -18 c5 0 7 -7 3 -16 -5 -13 -7 -13 -14 -2 -5 7 -8 22 -8
33 1 17 2 17 6 3 2 -10 8 -18 13 -18z m57 24 c-3 -3 -12 -4 -19 -1 -8 3 -5 6
6 6 11 1 17 -2 13 -5z m160 -10 c-3 -3 -12 -4 -19 -1 -8 3 -5 6 6 6 11 1 17
-2 13 -5z m-110 -20 c-3 -3 -12 -4 -19 -1 -8 3 -5 6 6 6 11 1 17 -2 13 -5z
m716 -11 c-13 -2 -35 -2 -50 0 -16 2 -5 4 22 4 28 0 40 -2 28 -4z m-1360 -10
c-7 -2 -21 -2 -30 0 -10 3 -4 5 12 5 17 0 24 -2 18 -5z m307 -38 c0 -8 -16
-14 -38 -17 -34 -3 -38 -1 -34 17 3 17 10 20 38 17 19 -2 34 -10 34 -17z m710
13 c0 6 9 12 20 12 15 0 20 -7 20 -27 0 -21 -3 -24 -9 -14 -7 12 -13 12 -24 3
-17 -14 -27 -6 -27 22 0 17 2 18 10 6 6 -10 10 -11 10 -2z m-776 -64 c3 -8 2
-12 -4 -9 -6 3 -10 10 -10 16 0 14 7 11 14 -7z m-11 -94 c-3 -11 -7 -20 -9
-20 -2 0 -4 9 -4 20 0 11 4 20 9 20 5 0 7 -9 4 -20z m274 -92 c-2 -13 -4 -3
-4 22 0 25 2 35 4 23 2 -13 2 -33 0 -45z m501 -54 c-3 -14 -5 -12 -10 9 -3 19
-2 25 4 19 6 -6 8 -18 6 -28z m-116 -16 c-7 -7 -12 -8 -12 -2 0 14 12 26 19
19 2 -3 -1 -11 -7 -17z m-825 -70 c-3 -7 -5 -2 -5 12 0 14 2 19 5 13 2 -7 2
-19 0 -25z m930 -25 c-3 -10 -5 -4 -5 12 0 17 2 24 5 18 2 -7 2 -21 0 -30z
m-434 20 c-7 -2 -19 -2 -25 0 -7 3 -2 5 12 5 14 0 19 -2 13 -5z m930 0 c-7 -2
-21 -2 -30 0 -10 3 -4 5 12 5 17 0 24 -2 18 -5z m-581 -92 c1 -17 5 -28 10
-25 4 3 8 1 8 -5 0 -5 8 -12 18 -14 11 -3 9 -5 -8 -6 -38 -1 -47 10 -42 52 5
44 13 43 14 -2z m-417 1 c-3 -3 -11 0 -18 7 -9 10 -8 11 6 5 10 -3 15 -9 12
-12z m732 -14 c-3 -7 -5 -2 -5 12 0 14 2 19 5 13 2 -7 2 -19 0 -25z m-1141
-24 c-4 -10 2 -13 19 -12 13 1 21 6 19 10 -3 4 6 8 20 8 21 0 25 -5 24 -23 -1
-14 -8 -23 -20 -23 -10 0 -18 4 -18 8 0 4 -7 8 -15 8 -8 0 -15 -4 -15 -10 0
-5 5 -9 12 -7 6 1 15 -9 19 -23 6 -22 14 -10 10 14 -1 5 4 4 12 -2 8 -7 17 -9
20 -6 3 2 -12 -14 -34 -36 -22 -22 -44 -38 -50 -35 -5 4 -7 11 -4 16 4 5 1 9
-4 9 -6 0 -11 -7 -11 -15 0 -8 -5 -15 -11 -15 -8 0 -7 -5 1 -15 11 -13 10 -14
-4 -9 -9 3 -16 1 -16 -5 0 -6 -8 -11 -17 -11 -14 0 -13 3 5 23 12 12 23 32 25
44 1 12 9 28 16 37 8 9 11 19 7 23 -8 8 -33 -22 -51 -64 -8 -17 -20 -35 -26
-38 -11 -8 -6 5 25 60 9 17 22 42 27 58 6 15 15 27 20 27 4 0 5 7 2 17 -4 11
-3 14 6 9 7 -5 10 -14 7 -22z m1154 -34 c0 -5 -2 -10 -4 -10 -3 0 -8 5 -11 10
-3 6 -1 10 4 10 6 0 11 -4 11 -10z m-1250 -139 c0 -6 -4 -13 -10 -16 -5 -3
-10 1 -10 9 0 9 5 16 10 16 6 0 10 -4 10 -9z m104 1 c3 -5 -1 -9 -9 -9 -8 0
-12 4 -9 9 3 4 7 8 9 8 2 0 6 -4 9 -8z m553 -8 c-3 -3 -12 -4 -19 -1 -8 3 -5
6 6 6 11 1 17 -2 13 -5z"/>
<path d="M145 190 c-3 -5 -1 -10 4 -10 6 0 11 5 11 10 0 6 -2 10 -4 10 -3 0
-8 -4 -11 -10z"/>
<path d="M184 148 c-10 -15 -14 -58 -6 -58 14 0 32 39 22 45 -6 4 -8 11 -5 16
4 5 4 9 1 9 -3 0 -8 -5 -12 -12z"/>
<path d="M145 130 c-3 -5 -2 -10 4 -10 5 0 13 5 16 10 3 6 2 10 -4 10 -5 0
-13 -4 -16 -10z"/>
<path d="M1100 2900 c-14 -10 -26 -24 -26 -29 -1 -6 -2 -26 -3 -43 -2 -28 -4
-30 -11 -13 -8 18 -9 17 -9 -7 -1 -19 3 -26 12 -22 8 3 14 -2 14 -10 0 -8 -4
-13 -8 -10 -12 7 -22 -37 -11 -48 6 -6 8 -17 5 -24 -3 -8 -1 -14 4 -14 6 0 11
-30 12 -67 1 -36 2 -69 3 -72 0 -3 0 -25 -1 -48 -1 -40 -3 -43 -39 -52 -51
-14 -125 -78 -119 -102 3 -11 2 -17 -3 -14 -4 3 -11 -2 -14 -11 -8 -21 -8 -21
9 -21 8 0 15 5 15 11 0 6 5 4 10 -4 8 -13 10 -12 10 3 0 9 5 17 11 17 7 0 9
10 7 25 -3 14 -1 25 3 25 5 0 9 -7 9 -15 0 -8 6 -15 13 -15 9 0 9 -2 -1 -9
-10 -6 -10 -10 2 -21 13 -10 17 -9 22 4 3 9 4 22 1 29 -3 8 -1 20 5 28 8 11 9
10 4 -3 -3 -10 -1 -18 4 -18 6 0 10 -8 11 -17 0 -10 6 -2 14 17 l13 35 1 -65
c3 -88 3 -90 13 -90 5 0 5 -8 -1 -17 -15 -30 -11 -73 8 -73 14 0 16 14 15 102
-1 112 13 187 34 181 7 -3 12 4 12 14 0 16 6 19 41 16 l40 -3 -3 37 c-3 37 -4
38 -45 41 l-43 3 0 -40 c0 -53 -17 -53 -22 -1 -2 22 0 40 4 40 5 0 8 7 8 15 0
8 6 12 14 9 12 -5 14 5 12 46 -2 31 -9 56 -17 61 -10 6 -10 9 -2 9 7 0 10 7 7
15 -4 8 -10 12 -15 9 -10 -6 0 25 13 43 6 7 7 16 4 21 -3 5 -6 27 -7 50 -2 28
-8 42 -17 42 -7 0 -10 5 -7 10 4 6 11 8 16 5 5 -4 9 1 9 9 0 8 -5 18 -10 21
-6 4 -8 11 -5 16 9 13 3 11 -25 -11z m20 -74 c0 -8 -3 -22 -6 -31 -6 -14 -8
-13 -21 5 -8 11 -11 25 -8 30 9 15 35 12 35 -4z m11 -73 c13 -16 12 -17 -3 -4
-10 7 -18 15 -18 17 0 8 8 3 21 -13z m-41 -8 c0 -2 -6 -8 -13 -14 -10 -8 -14
-7 -14 2 0 8 6 14 14 14 7 0 13 -1 13 -2z m17 -87 c-3 -8 -6 -5 -6 6 -1 11 2
17 5 13 3 -3 4 -12 1 -19z m30 -45 c1 -21 -5 -43 -15 -52 -14 -15 -15 -15 -10
1 4 9 0 22 -8 28 -8 7 -13 22 -13 34 1 19 2 19 6 2 3 -11 12 -27 21 -35 14
-15 15 -14 9 7 -5 20 0 52 7 52 1 0 3 -16 3 -37z m-127 -234 c0 -5 -4 -9 -8
-9 -5 0 -9 7 -9 15 0 8 4 12 9 9 4 -3 8 -9 8 -15z"/>
<path d="M312 2700 c0 -14 4 -38 8 -55 l8 -30 0 30 c0 17 -4 41 -8 55 l-8 25
0 -25z"/>
<path d="M885 2248 c-7 -18 -15 -42 -17 -53 -1 -11 -6 -22 -9 -25 -3 -3 -16
-59 -28 -125 -48 -264 -49 -271 -27 -239 8 11 17 50 21 87 7 83 27 142 48 141
18 -2 11 26 -10 39 -19 12 -16 28 4 20 13 -5 15 -2 10 11 -4 10 -3 15 3 11 14
-9 25 65 11 87 -6 10 -8 18 -4 17 19 -3 27 2 14 10 -10 7 -11 13 -2 30 7 11 9
21 6 21 -3 0 -12 -15 -20 -32z m2 -100 c-3 -8 -6 -5 -6 6 -1 11 2 17 5 13 3
-3 4 -12 1 -19z"/>
<path d="M1033 2235 c0 -27 2 -38 4 -22 2 15 2 37 0 50 -2 12 -4 0 -4 -28z"/>
<path d="M1112 2260 c0 -14 2 -19 5 -12 2 6 2 18 0 25 -3 6 -5 1 -5 -13z"/>
<path d="M1010 2255 c0 -8 -4 -15 -10 -15 -5 0 -10 -5 -10 -11 0 -5 6 -7 13
-3 8 6 8 3 -1 -9 -8 -9 -12 -24 -9 -34 4 -14 5 -13 6 5 0 13 6 20 11 17 6 -4
10 8 10 29 0 20 -2 36 -5 36 -3 0 -5 -7 -5 -15z"/>
<path d="M1138 2099 c0 -74 0 -154 1 -178 1 -27 -3 -48 -11 -53 -10 -6 -10 -8
0 -8 6 0 12 -10 12 -22 0 -17 -3 -19 -9 -10 -6 10 -11 5 -20 -19 -15 -43 -14
-54 3 -39 8 6 12 18 9 26 -3 8 0 14 6 14 10 0 18 -112 13 -198 -1 -19 3 -30 8
-27 9 6 3 634 -6 644 -2 2 -5 -56 -6 -130z"/>
<path d="M960 2007 l5 -52 3 44 c2 24 0 47 -5 52 -4 4 -6 -15 -3 -44z"/>
<path d="M950 1899 c0 -11 -4 -18 -8 -15 -8 5 -10 -1 -13 -36 -2 -23 12 -273
16 -285 3 -8 21 -13 46 -13 32 0 40 -3 35 -15 -3 -8 -1 -15 3 -15 5 0 11 5 13
12 2 6 10 8 17 4 7 -5 10 -14 7 -22 -3 -8 1 -17 9 -20 10 -4 12 -15 8 -35 -3
-19 -1 -29 6 -29 7 0 9 -4 6 -10 -3 -5 0 -7 9 -4 10 4 15 25 18 69 2 35 0 61
-4 58 -5 -2 -8 1 -8 6 0 6 -3 10 -7 9 -5 -1 -22 4 -40 12 -34 15 -46 38 -32
62 6 11 4 15 -6 14 -7 0 -14 4 -15 9 -1 6 -7 16 -13 24 -9 12 -9 13 1 7 25
-15 11 10 -15 28 -16 9 -20 15 -9 12 16 -5 18 -2 14 26 -3 18 -9 42 -13 52 -6
14 -5 17 3 12 7 -4 12 -3 12 3 0 5 -9 9 -20 8 -14 -1 -20 -9 -21 -27 -1 -20
-3 -18 -8 10 -8 43 -3 63 15 56 9 -4 13 4 11 24 -2 34 -17 41 -17 9z"/>
<path d="M847 1903 c-10 -16 -11 -72 -2 -70 6 1 10 16 9 34 -1 18 3 30 8 27 4
-3 8 0 8 5 0 13 -17 15 -23 4z"/>
<path d="M881 1884 c0 -11 3 -14 6 -6 3 7 2 16 -1 19 -3 4 -6 -2 -5 -13z"/>
<path d="M893 1853 c4 -3 -2 -13 -13 -20 -15 -10 -19 -21 -15 -36 6 -20 5 -21
-8 -4 -20 24 -26 21 -25 -10 1 -16 0 -32 -1 -38 -2 -5 -3 -23 -2 -39 1 -33 12
-29 16 6 6 57 8 60 14 18 l6 -45 18 72 c9 40 20 79 23 88 4 8 1 15 -7 15 -7 0
-9 -3 -6 -7z"/>
<path d="M1009 1797 c-5 -55 4 -96 13 -62 9 34 8 76 -1 93 -6 11 -10 2 -12
-31z"/>
<path d="M850 1671 c0 -5 7 -12 16 -15 14 -5 15 -4 4 9 -14 17 -20 19 -20 6z"/>
<path d="M822 1620 c0 -14 2 -19 5 -12 2 6 2 18 0 25 -3 6 -5 1 -5 -13z"/>
<path d="M1146 1535 c4 -8 8 -15 10 -15 2 0 4 7 4 15 0 8 -4 15 -10 15 -5 0
-7 -7 -4 -15z"/>
<path d="M1170 1542 c0 -7 11 -9 29 -6 20 4 37 0 53 -11 14 -11 16 -15 6 -12
-15 5 -17 -1 -16 -38 0 -25 3 -45 7 -45 3 0 12 -4 19 -8 10 -7 10 -14 -3 -38
-8 -16 -15 -43 -15 -60 0 -24 4 -30 20 -29 11 1 23 5 27 10 5 4 3 6 -2 2 -6
-3 -17 -2 -25 4 -12 7 -12 9 -1 9 11 0 11 3 1 15 -10 13 -9 15 11 16 13 1 28
1 33 0 5 -1 5 13 1 31 -4 18 -7 40 -7 48 -1 8 -4 20 -9 25 -4 6 -10 24 -13 39
-3 16 -10 34 -15 39 -14 14 -101 22 -101 9z m115 -80 c3 -7 3 -18 0 -22 -3 -5
-1 -11 5 -15 5 -3 10 -15 10 -26 0 -11 -4 -18 -10 -14 -5 3 -7 12 -4 20 4 8
-1 18 -10 21 -14 5 -14 9 -4 22 11 13 10 15 -3 10 -9 -4 -16 -1 -16 6 0 17 25
16 32 -2z"/>
<path d="M1158 1475 c-3 -13 -1 -22 3 -19 9 5 13 -17 9 -46 -1 -10 2 -12 9 -5
11 11 3 95 -9 95 -4 0 -10 -11 -12 -25z"/>
<path d="M824 1372 c-9 -56 -9 -57 -45 -60 -30 -3 -38 -8 -42 -28 -2 -13 0
-24 5 -24 5 0 4 -9 -2 -20 -15 -28 -15 -140 0 -154 9 -8 11 0 8 36 -2 31 1 49
9 52 9 4 11 -4 8 -27 l-5 -32 12 28 c8 18 17 26 27 22 11 -5 11 -2 -2 13 -17
18 -17 20 0 33 16 13 17 12 4 -3 -15 -20 -2 -25 16 -7 8 8 8 20 3 35 -6 14 -5
24 1 26 5 2 11 17 13 33 2 17 7 51 11 76 4 27 3 49 -2 52 -6 4 -14 -19 -19
-51z"/>
<path d="M1111 1394 c0 -11 3 -14 6 -6 3 7 2 16 -1 19 -3 4 -6 -2 -5 -13z"/>
<path d="M1090 1372 c0 -12 4 -22 9 -22 5 0 7 -25 5 -56 -4 -38 -2 -54 5 -49
16 9 13 107 -4 129 -15 19 -15 19 -15 -2z"/>
<path d="M1171 1374 c0 -11 3 -14 6 -6 3 7 2 16 -1 19 -3 4 -6 -2 -5 -13z"/>
<path d="M1153 1345 c0 -22 2 -30 4 -17 2 12 2 30 0 40 -3 9 -5 -1 -4 -23z"/>
<path d="M990 1310 c-12 -8 -10 -10 8 -10 13 0 20 4 17 10 -7 12 -6 12 -25 0z"/>
<path d="M1175 1300 c-3 -5 -1 -10 4 -10 6 0 11 5 11 10 0 6 -2 10 -4 10 -3 0
-8 -4 -11 -10z"/>
<path d="M980 1280 c0 -5 5 -10 11 -10 5 0 7 5 4 10 -3 6 -8 10 -11 10 -2 0
-4 -4 -4 -10z"/>
<path d="M1160 1251 c0 -34 15 -42 23 -11 3 10 -1 24 -9 31 -11 9 -14 6 -14
-20z"/>
<path d="M1387 1261 c-5 -22 23 -47 38 -33 5 4 5 1 1 -6 -4 -7 -12 -9 -18 -6
-7 4 -7 0 0 -12 11 -21 -1 -64 -18 -64 -5 0 -10 -4 -10 -10 0 -19 28 2 40 30
16 39 42 49 30 12 -5 -15 -11 -49 -14 -77 -2 -27 -7 -61 -11 -75 l-8 -25 20
20 c11 11 19 23 16 28 -2 4 1 7 6 7 6 0 11 9 11 21 0 11 3 18 8 15 4 -2 9 24
10 59 2 37 -1 66 -7 70 -8 4 -8 12 0 26 14 26 12 28 -43 35 -40 6 -46 4 -51
-15z m68 -1 c8 -13 -25 -13 -45 0 -12 8 -9 10 12 10 15 0 30 -4 33 -10z"/>
<path d="M975 1250 c-3 -5 1 -10 10 -10 9 0 13 5 10 10 -3 6 -8 10 -10 10 -2
0 -7 -4 -10 -10z"/>
<path d="M1556 1225 c8 -37 14 -45 14 -19 0 10 -5 26 -10 34 -8 11 -9 7 -4
-15z"/>
<path d="M990 1226 c0 -2 8 -10 18 -17 15 -13 16 -12 3 4 -13 16 -21 21 -21
13z"/>
<path d="M1590 1220 c0 -5 6 -10 14 -10 8 0 18 -9 21 -21 4 -11 9 -18 12 -15
8 7 -25 56 -37 56 -6 0 -10 -4 -10 -10z"/>
<path d="M2902 1210 c0 -14 2 -19 5 -12 2 6 2 18 0 25 -3 6 -5 1 -5 -13z"/>
<path d="M2291 1189 c-6 -18 -11 -37 -10 -43 0 -6 7 7 15 28 8 22 12 41 10 43
-2 2 -9 -10 -15 -28z"/>
<path d="M625 1190 c-4 -6 -1 -9 6 -8 7 2 14 -3 15 -9 1 -7 2 -17 3 -23 0 -5
7 -10 15 -10 9 0 12 7 9 20 -3 12 0 20 6 20 7 0 9 5 6 10 -8 13 -52 13 -60 0z"/>
<path d="M1583 1140 c0 -36 2 -50 4 -32 2 17 2 47 0 65 -2 17 -4 3 -4 -33z"/>
<path d="M2180 1195 c0 -5 5 -17 10 -25 5 -8 10 -10 10 -5 0 6 -5 17 -10 25
-5 8 -10 11 -10 5z"/>
<path d="M71 1164 c0 -11 3 -14 6 -6 3 7 2 16 -1 19 -3 4 -6 -2 -5 -13z"/>
<path d="M970 1135 c0 -8 2 -15 4 -15 2 0 6 7 10 15 3 8 1 15 -4 15 -6 0 -10
-7 -10 -15z"/>
<path d="M77 1120 c3 -11 7 -20 9 -20 2 0 4 9 4 20 0 11 -4 20 -9 20 -5 0 -7
-9 -4 -20z"/>
<path d="M615 1109 c-4 -6 -5 -12 -2 -15 2 -3 7 2 10 11 7 17 1 20 -8 4z"/>
<path d="M682 1093 c0 -15 -3 -45 -7 -65 -10 -60 2 -44 15 18 8 37 8 60 2 66
-6 6 -10 0 -10 -19z"/>
<path d="M662 1090 c0 -14 2 -19 5 -12 2 6 2 18 0 25 -3 6 -5 1 -5 -13z"/>
<path d="M975 1060 c3 -5 8 -10 11 -10 2 0 4 5 4 10 0 6 -5 10 -11 10 -5 0 -7
-4 -4 -10z"/>
<path d="M11 1024 c0 -11 3 -14 6 -6 3 7 2 16 -1 19 -3 4 -6 -2 -5 -13z"/>
<path d="M954 962 c-12 -8 -13 -112 -1 -112 5 0 5 4 2 10 -4 6 3 9 16 7 16 -1
22 4 24 21 1 13 -4 26 -11 30 -6 4 -14 17 -16 29 -2 14 -7 20 -14 15z"/>
<path d="M982 950 c0 -14 2 -19 5 -12 2 6 2 18 0 25 -3 6 -5 1 -5 -13z"/>
<path d="M982 801 c-11 -7 -11 -9 2 -14 10 -4 16 -1 16 8 0 17 -1 17 -18 6z"/>
<path d="M934 736 c-9 -9 -8 -17 3 -32 15 -18 15 -18 8 4 -4 13 -2 22 4 22 6
0 11 5 11 10 0 14 -13 12 -26 -4z"/>
<path d="M987 719 c7 -7 15 -10 18 -7 3 3 -2 9 -12 12 -14 6 -15 5 -6 -5z"/>
<path d="M950 665 c0 -8 5 -15 10 -15 6 0 10 7 10 15 0 8 -4 15 -10 15 -5 0
-10 -7 -10 -15z"/>
<path d="M1000 618 c0 -17 -7 -39 -16 -49 -15 -16 -14 -17 5 -12 17 4 21 13
21 49 0 24 -2 44 -5 44 -3 0 -5 -14 -5 -32z"/>
<path d="M931 604 c0 -11 3 -14 6 -6 3 7 2 16 -1 19 -3 4 -6 -2 -5 -13z"/>
<path d="M953 581 c-13 -11 -23 -22 -23 -25 0 -10 39 18 44 31 7 17 6 16 -21
-6z"/>
<path d="M951 534 c0 -11 3 -14 6 -6 3 7 2 16 -1 19 -3 4 -6 -2 -5 -13z"/>
<path d="M1006 520 c4 -19 11 -42 16 -50 7 -11 8 -10 5 8 -3 13 0 22 6 22 7 0
5 6 -4 13 -9 7 -19 19 -22 27 -4 8 -4 -1 -1 -20z"/>
<path d="M945 470 c4 -6 11 -8 16 -5 14 9 11 15 -7 15 -8 0 -12 -5 -9 -10z"/>
</g>
</svg>
